<svg xmlns="http://www.w3.org/2000/svg" viewBox="0 0 1200 900" role="img">
<defs>
  <linearGradient id="bg" x1="0" y1="0" x2="1" y2="1">
    <stop offset="0%" stop-color="#fdf8f5"/>
    <stop offset="100%" stop-color="#f0e8df"/>
  </linearGradient>
  <radialGradient id="gl" cx="78%" cy="20%" r="65%">
    <stop offset="0%" stop-color="#7b4b2a" stop-opacity="0.28"/>
    <stop offset="100%" stop-color="#7b4b2a" stop-opacity="0"/>
  </radialGradient>
  <linearGradient id="fd" x1="0" y1="0" x2="0" y2="1">
    <stop offset="0%" stop-color="#fdf8f5" stop-opacity="0"/>
    <stop offset="100%" stop-color="#fdf8f5" stop-opacity="0.88"/>
  </linearGradient>
</defs>

<rect width="1200" height="900" fill="url(#bg)"/>
<rect width="1200" height="900" fill="url(#gl)"/>

<!-- Seat grid rows 1-5, cols at x=700+ -->
<rect x="700" y="130" width="42" height="36" rx="7" fill="#7b4b2a" fill-opacity="0.22" stroke="#7b4b2a" stroke-opacity="0.5" stroke-width="1.2"/>
<rect x="752" y="130" width="42" height="36" rx="7" fill="#7b4b2a" fill-opacity="0.07" stroke="#7b4b2a" stroke-opacity="0.28" stroke-width="1"/>
<rect x="804" y="130" width="42" height="36" rx="7" fill="#7b4b2a" fill-opacity="0.22" stroke="#7b4b2a" stroke-opacity="0.5" stroke-width="1.2"/>
<rect x="856" y="130" width="42" height="36" rx="7" fill="#7b4b2a" fill-opacity="0.07" stroke="#7b4b2a" stroke-opacity="0.24" stroke-width="1"/>
<rect x="908" y="130" width="42" height="36" rx="7" fill="#7b4b2a" fill-opacity="0.12" stroke="#7b4b2a" stroke-opacity="0.3" stroke-width="1"/>
<rect x="960" y="130" width="42" height="36" rx="7" fill="#7b4b2a" fill-opacity="0.05" stroke="#7b4b2a" stroke-opacity="0.18" stroke-width="1"/>
<rect x="1012" y="130" width="42" height="36" rx="7" fill="#7b4b2a" fill-opacity="0.04" stroke="#7b4b2a" stroke-opacity="0.14" stroke-width="1"/>

<rect x="700" y="186" width="42" height="36" rx="7" fill="#7b4b2a" fill-opacity="0.07" stroke="#7b4b2a" stroke-opacity="0.26" stroke-width="1"/>
<rect x="752" y="186" width="42" height="36" rx="7" fill="#7b4b2a" fill-opacity="0.28" stroke="#7b4b2a" stroke-opacity="0.58" stroke-width="1.5"/>
<rect x="804" y="186" width="42" height="36" rx="7" fill="#7b4b2a" fill-opacity="0.28" stroke="#7b4b2a" stroke-opacity="0.58" stroke-width="1.5"/>
<rect x="856" y="186" width="42" height="36" rx="7" fill="#7b4b2a" fill-opacity="0.07" stroke="#7b4b2a" stroke-opacity="0.26" stroke-width="1"/>
<rect x="908" y="186" width="42" height="36" rx="7" fill="#7b4b2a" fill-opacity="0.07" stroke="#7b4b2a" stroke-opacity="0.22" stroke-width="1"/>
<rect x="960" y="186" width="42" height="36" rx="7" fill="#7b4b2a" fill-opacity="0.12" stroke="#7b4b2a" stroke-opacity="0.28" stroke-width="1"/>
<rect x="1012" y="186" width="42" height="36" rx="7" fill="#7b4b2a" fill-opacity="0.04" stroke="#7b4b2a" stroke-opacity="0.14" stroke-width="1"/>

<rect x="700" y="242" width="42" height="36" rx="7" fill="#7b4b2a" fill-opacity="0.22" stroke="#7b4b2a" stroke-opacity="0.5" stroke-width="1.2"/>
<rect x="752" y="242" width="42" height="36" rx="7" fill="#7b4b2a" fill-opacity="0.07" stroke="#7b4b2a" stroke-opacity="0.26" stroke-width="1"/>
<rect x="804" y="242" width="42" height="36" rx="7" fill="#7b4b2a" fill-opacity="0.07" stroke="#7b4b2a" stroke-opacity="0.26" stroke-width="1"/>
<rect x="856" y="242" width="42" height="36" rx="7" fill="#7b4b2a" fill-opacity="0.22" stroke="#7b4b2a" stroke-opacity="0.5" stroke-width="1.2"/>
<rect x="908" y="242" width="42" height="36" rx="7" fill="#7b4b2a" fill-opacity="0.07" stroke="#7b4b2a" stroke-opacity="0.2" stroke-width="1"/>
<rect x="960" y="242" width="42" height="36" rx="7" fill="#7b4b2a" fill-opacity="0.05" stroke="#7b4b2a" stroke-opacity="0.16" stroke-width="1"/>
<rect x="1012" y="242" width="42" height="36" rx="7" fill="#7b4b2a" fill-opacity="0.04" stroke="#7b4b2a" stroke-opacity="0.12" stroke-width="1"/>

<rect x="700" y="298" width="42" height="36" rx="7" fill="#7b4b2a" fill-opacity="0.07" stroke="#7b4b2a" stroke-opacity="0.24" stroke-width="1"/>
<rect x="752" y="298" width="42" height="36" rx="7" fill="#7b4b2a" fill-opacity="0.22" stroke="#7b4b2a" stroke-opacity="0.5" stroke-width="1.2"/>
<rect x="804" y="298" width="42" height="36" rx="7" fill="#7b4b2a" fill-opacity="0.07" stroke="#7b4b2a" stroke-opacity="0.24" stroke-width="1"/>
<rect x="856" y="298" width="42" height="36" rx="7" fill="#7b4b2a" fill-opacity="0.07" stroke="#7b4b2a" stroke-opacity="0.2" stroke-width="1"/>
<rect x="908" y="298" width="42" height="36" rx="7" fill="#7b4b2a" fill-opacity="0.12" stroke="#7b4b2a" stroke-opacity="0.26" stroke-width="1"/>
<rect x="960" y="298" width="42" height="36" rx="7" fill="#7b4b2a" fill-opacity="0.04" stroke="#7b4b2a" stroke-opacity="0.14" stroke-width="1"/>

<rect x="700" y="354" width="42" height="36" rx="7" fill="#7b4b2a" fill-opacity="0.12" stroke="#7b4b2a" stroke-opacity="0.32" stroke-width="1"/>
<rect x="752" y="354" width="42" height="36" rx="7" fill="#7b4b2a" fill-opacity="0.07" stroke="#7b4b2a" stroke-opacity="0.22" stroke-width="1"/>
<rect x="804" y="354" width="42" height="36" rx="7" fill="#7b4b2a" fill-opacity="0.22" stroke="#7b4b2a" stroke-opacity="0.5" stroke-width="1.2"/>
<rect x="856" y="354" width="42" height="36" rx="7" fill="#7b4b2a" fill-opacity="0.07" stroke="#7b4b2a" stroke-opacity="0.18" stroke-width="1"/>
<rect x="908" y="354" width="42" height="36" rx="7" fill="#7b4b2a" fill-opacity="0.05" stroke="#7b4b2a" stroke-opacity="0.14" stroke-width="1"/>

<!-- Stage bar -->
<rect x="700" y="420" width="370" height="16" rx="5" fill="#7b4b2a" fill-opacity="0.07" stroke="#7b4b2a" stroke-opacity="0.28" stroke-width="1"/>
<text x="885" y="432" text-anchor="middle" font-family="monospace" font-size="8" fill="#7b4b2a" fill-opacity="0.38" letter-spacing="4">STAGE</text>

<!-- Card frame -->
<rect x="55" y="75" width="620" height="520" rx="16" fill="#7b4b2a" fill-opacity="0.04" stroke="#7b4b2a" stroke-opacity="0.15" stroke-width="1"/>

<text x="95" y="134" font-family="'Segoe UI',Arial,sans-serif" font-size="11" font-weight="600" fill="#7b4b2a" fill-opacity="0.7" letter-spacing="0.12em">SEAT ALLOCATION PLATFORM</text>

<text x="95" y="200" font-family="'Segoe UI',Arial,sans-serif" font-size="54" font-weight="700" fill="#1a0d05" letter-spacing="-0.03em">FCN Seating</text>

<text x="95" y="254" font-family="'Segoe UI',Arial,sans-serif" font-size="17" font-weight="400" fill="#5a3820" fill-opacity="1">Interactive seat planning platform that replaces</text>
<text x="95" y="276" font-family="'Segoe UI',Arial,sans-serif" font-size="17" font-weight="400" fill="#5a3820" fill-opacity="1">manual tracking with clear allocation workflows.</text>

<line x1="95" y1="302" x2="645" y2="302" stroke="#7b4b2a" stroke-opacity="0.15" stroke-width="1"/>

<rect x="95" y="320" width="72" height="28" rx="14" fill="#7b4b2a" fill-opacity="0.1" stroke="#7b4b2a" stroke-opacity="0.35" stroke-width="1"/>
<text x="131" y="339" text-anchor="middle" font-family="'Segoe UI',Arial,sans-serif" font-size="11" font-weight="600" fill="#7b4b2a" fill-opacity="0.85">Laravel</text>

<rect x="175" y="320" width="60" height="28" rx="14" fill="#7b4b2a" fill-opacity="0.1" stroke="#7b4b2a" stroke-opacity="0.35" stroke-width="1"/>
<text x="205" y="339" text-anchor="middle" font-family="'Segoe UI',Arial,sans-serif" font-size="11" font-weight="600" fill="#7b4b2a" fill-opacity="0.85">Vue 3</text>

<rect x="243" y="320" width="92" height="28" rx="14" fill="#7b4b2a" fill-opacity="0.1" stroke="#7b4b2a" stroke-opacity="0.35" stroke-width="1"/>
<text x="289" y="339" text-anchor="middle" font-family="'Segoe UI',Arial,sans-serif" font-size="11" font-weight="600" fill="#7b4b2a" fill-opacity="0.85">Inertia.js</text>

<rect x="0" y="540" width="1200" height="360" fill="url(#fd)"/>
</svg>
