<svg xmlns="http://www.w3.org/2000/svg" viewBox="0 0 1200 900" role="img">
<defs>
  <linearGradient id="bg" x1="0" y1="0" x2="1" y2="1">
    <stop offset="0%" stop-color="#fdf8f5"/>
    <stop offset="100%" stop-color="#f0e8df"/>
  </linearGradient>
  <radialGradient id="gl" cx="78%" cy="20%" r="65%">
    <stop offset="0%" stop-color="#7b4b2a" stop-opacity="0.28"/>
    <stop offset="100%" stop-color="#7b4b2a" stop-opacity="0"/>
  </radialGradient>
  <linearGradient id="fd" x1="0" y1="0" x2="0" y2="1">
    <stop offset="0%" stop-color="#fdf8f5" stop-opacity="0"/>
    <stop offset="100%" stop-color="#fdf8f5" stop-opacity="0.88"/>
  </linearGradient>
</defs>

<rect width="1200" height="900" fill="url(#bg)"/>
<rect width="1200" height="900" fill="url(#gl)"/>

<!-- Stacked document layers -->
<rect x="780" y="135" width="310" height="370" rx="10" fill="#7b4b2a" fill-opacity="0.05" stroke="#7b4b2a" stroke-opacity="0.18" stroke-width="1.5" transform="rotate(-5 935 320)"/>
<rect x="780" y="135" width="310" height="370" rx="10" fill="#7b4b2a" fill-opacity="0.07" stroke="#7b4b2a" stroke-opacity="0.25" stroke-width="1.5" transform="rotate(-2 935 320)"/>
<!-- Front document -->
<rect x="780" y="135" width="310" height="370" rx="10" fill="#7b4b2a" fill-opacity="0.1" stroke="#7b4b2a" stroke-opacity="0.38" stroke-width="1.5"/>
<!-- Doc lines -->
<rect x="810" y="168" width="160" height="8" rx="3" fill="#7b4b2a" fill-opacity="0.42"/>
<rect x="810" y="186" width="240" height="5" rx="2" fill="#7b4b2a" fill-opacity="0.18"/>
<rect x="810" y="200" width="205" height="5" rx="2" fill="#7b4b2a" fill-opacity="0.16"/>
<rect x="810" y="214" width="225" height="5" rx="2" fill="#7b4b2a" fill-opacity="0.14"/>
<line x1="810" y1="232" x2="1060" y2="232" stroke="#7b4b2a" stroke-opacity="0.1" stroke-width="1"/>
<rect x="810" y="244" width="248" height="5" rx="2" fill="#7b4b2a" fill-opacity="0.13"/>
<rect x="810" y="258" width="190" height="5" rx="2" fill="#7b4b2a" fill-opacity="0.13"/>
<rect x="810" y="272" width="218" height="5" rx="2" fill="#7b4b2a" fill-opacity="0.11"/>
<!-- Checkmark -->
<path d="M 1046,150 L 1058,165 L 1080,140" fill="none" stroke="#7b4b2a" stroke-width="3" stroke-opacity="0.6" stroke-linecap="round" stroke-linejoin="round"/>

<!-- Bid comparison bars -->
<text x="820" y="358" font-family="monospace" font-size="9" fill="#7b4b2a" fill-opacity="0.35" letter-spacing="1">BID COMPARISON</text>
<rect x="820" y="366" width="22" height="56" rx="3" fill="#7b4b2a" fill-opacity="0.2"/>
<rect x="852" y="348" width="22" height="74" rx="3" fill="#7b4b2a" fill-opacity="0.55"/>
<rect x="884" y="378" width="22" height="44" rx="3" fill="#7b4b2a" fill-opacity="0.18"/>
<text x="863" y="342" text-anchor="middle" font-family="monospace" font-size="9" fill="#7b4b2a" fill-opacity="0.55">★</text>
<text x="820" y="436" font-family="monospace" font-size="9" fill="#7b4b2a" fill-opacity="0.3">A</text>
<text x="852" y="436" font-family="monospace" font-size="9" fill="#7b4b2a" fill-opacity="0.45">B</text>
<text x="884" y="436" font-family="monospace" font-size="9" fill="#7b4b2a" fill-opacity="0.28">C</text>

<!-- Card frame -->
<rect x="55" y="75" width="620" height="520" rx="16" fill="#7b4b2a" fill-opacity="0.04" stroke="#7b4b2a" stroke-opacity="0.15" stroke-width="1"/>

<text x="95" y="134" font-family="'Segoe UI',Arial,sans-serif" font-size="11" font-weight="600" fill="#7b4b2a" fill-opacity="0.7" letter-spacing="0.12em">PROCUREMENT PLATFORM</text>

<text x="95" y="196" font-family="'Segoe UI',Arial,sans-serif" font-size="48" font-weight="700" fill="#1a0d05" letter-spacing="-0.03em">Tender Management</text>

<text x="95" y="254" font-family="'Segoe UI',Arial,sans-serif" font-size="17" font-weight="400" fill="#5a3820" fill-opacity="1">Role-based platform for vendor bidding,</text>
<text x="95" y="276" font-family="'Segoe UI',Arial,sans-serif" font-size="17" font-weight="400" fill="#5a3820" fill-opacity="1">bid comparison and approval workflows.</text>

<line x1="95" y1="302" x2="645" y2="302" stroke="#7b4b2a" stroke-opacity="0.15" stroke-width="1"/>

<rect x="95" y="320" width="92" height="28" rx="14" fill="#7b4b2a" fill-opacity="0.1" stroke="#7b4b2a" stroke-opacity="0.35" stroke-width="1"/>
<text x="141" y="339" text-anchor="middle" font-family="'Segoe UI',Arial,sans-serif" font-size="11" font-weight="600" fill="#7b4b2a" fill-opacity="0.85">Laravel 10</text>

<rect x="195" y="320" width="60" height="28" rx="14" fill="#7b4b2a" fill-opacity="0.1" stroke="#7b4b2a" stroke-opacity="0.35" stroke-width="1"/>
<text x="225" y="339" text-anchor="middle" font-family="'Segoe UI',Arial,sans-serif" font-size="11" font-weight="600" fill="#7b4b2a" fill-opacity="0.85">Vue 3</text>

<rect x="263" y="320" width="78" height="28" rx="14" fill="#7b4b2a" fill-opacity="0.1" stroke="#7b4b2a" stroke-opacity="0.35" stroke-width="1"/>
<text x="302" y="339" text-anchor="middle" font-family="'Segoe UI',Arial,sans-serif" font-size="11" font-weight="600" fill="#7b4b2a" fill-opacity="0.85">Tailwind</text>

<rect x="0" y="540" width="1200" height="360" fill="url(#fd)"/>
</svg>
